<?xml version="1.0" standalone="no"?><svg xmlns="http://www.w3.org/2000/svg" viewBox="0 0 1440 320"><path fill="#0099ff" fill-opacity="1" d="M0,256L20,256C40,256,80,256,120,250.7C160,245,200,235,240,213.3C280,192,320,160,360,170.7C400,181,440,235,480,266.7C520,299,560,309,600,272C640,235,680,149,720,106.7C760,64,800,64,840,74.7C880,85,920,107,960,128C1000,149,1040,171,1080,181.3C1120,192,1160,192,1200,176C1240,160,1280,128,1320,101.3C1360,75,1400,53,1420,42.7L1440,32L1440,320L1420,320C1400,320,1360,320,1320,320C1280,320,1240,320,1200,320C1160,320,1120,320,1080,320C1040,320,1000,320,960,320C920,320,880,320,840,320C800,320,760,320,720,320C680,320,640,320,600,320C560,320,520,320,480,320C440,320,400,320,360,320C320,320,280,320,240,320C200,320,160,320,120,320C80,320,40,320,20,320L0,320Z" style="--darkreader-inline-fill:#007acc;" data-darkreader-inline-fill=""></path></svg>